M48
; DRILL file {KiCad 5.1.9} date Tue Feb 16 04:36:53 2021
; FORMAT={-:-/ absolute / metric / decimal}
; #@! TF.CreationDate,2021-02-16T04:36:53+02:00
; #@! TF.GenerationSoftware,Kicad,Pcbnew,5.1.9
FMAT,2
METRIC
T1C1.000
T2C1.100
%
G90
G05
T1
X124.923Y-100.765
X124.923Y-103.305
X127.463Y-100.765
X127.463Y-103.305
X130.003Y-100.765
X130.003Y-103.305
X132.543Y-100.765
X132.543Y-103.305
X135.083Y-100.765
X135.083Y-103.305
X137.623Y-100.765
X137.623Y-103.305
X140.163Y-100.765
X140.163Y-103.305
X142.703Y-100.765
X142.703Y-103.305
X145.243Y-100.765
X145.243Y-103.305
X147.783Y-100.765
X147.783Y-103.305
X150.323Y-100.765
X150.323Y-103.305
X152.863Y-100.765
X152.863Y-103.305
X155.403Y-100.765
X155.403Y-103.305
X157.943Y-100.765
X157.943Y-103.305
X160.483Y-100.765
X160.483Y-103.305
X163.023Y-100.765
X163.023Y-103.305
X165.563Y-100.765
X165.563Y-103.305
X168.103Y-100.765
X168.103Y-103.305
X170.643Y-100.765
X170.643Y-103.305
X173.183Y-100.765
X173.183Y-103.305
T2
X117.773Y-98.315
X117.773Y-104.815
X122.273Y-98.315
X122.273Y-104.815
T0
M30
