%TF.GenerationSoftware,KiCad,Pcbnew,5.1.9*%
%TF.CreationDate,2021-02-16T04:37:06+02:00*%
%TF.ProjectId,PiCase40,50694361-7365-4343-902e-6b696361645f,rev?*%
%TF.SameCoordinates,Original*%
%TF.FileFunction,Copper,L1,Top*%
%TF.FilePolarity,Positive*%
%FSLAX46Y46*%
G04 Gerber Fmt 4.6, Leading zero omitted, Abs format (unit mm)*
G04 Created by KiCad (PCBNEW 5.1.9) date 2021-02-16 04:37:06*
%MOMM*%
%LPD*%
G01*
G04 APERTURE LIST*
%TA.AperFunction,SMDPad,CuDef*%
%ADD10R,1.000000X3.000000*%
%TD*%
%TA.AperFunction,ComponentPad*%
%ADD11R,1.700000X1.700000*%
%TD*%
%TA.AperFunction,ComponentPad*%
%ADD12O,1.700000X1.700000*%
%TD*%
%TA.AperFunction,ComponentPad*%
%ADD13C,2.000000*%
%TD*%
%TA.AperFunction,Conductor*%
%ADD14C,0.304800*%
%TD*%
G04 APERTURE END LIST*
D10*
%TO.P,J2,1*%
%TO.N,Net-(J2-Pad1)*%
X124892800Y-106545329D03*
%TO.P,J2,2*%
%TO.N,Net-(J2-Pad2)*%
X124892800Y-111585329D03*
%TO.P,J2,3*%
%TO.N,Net-(J2-Pad3)*%
X127432800Y-106545329D03*
%TO.P,J2,4*%
%TO.N,Net-(J2-Pad4)*%
X127432800Y-111585329D03*
%TO.P,J2,5*%
%TO.N,Net-(J2-Pad5)*%
X129972800Y-106545329D03*
%TO.P,J2,6*%
%TO.N,Net-(J2-Pad6)*%
X129972800Y-111585329D03*
%TO.P,J2,7*%
%TO.N,Net-(J2-Pad7)*%
X132512800Y-106545329D03*
%TO.P,J2,8*%
%TO.N,Net-(J2-Pad8)*%
X132512800Y-111585329D03*
%TO.P,J2,9*%
%TO.N,Net-(J2-Pad9)*%
X135052800Y-106545329D03*
%TO.P,J2,10*%
%TO.N,Net-(J2-Pad10)*%
X135052800Y-111585329D03*
%TO.P,J2,11*%
%TO.N,Net-(J2-Pad11)*%
X137592800Y-106545329D03*
%TO.P,J2,12*%
%TO.N,Net-(J2-Pad12)*%
X137592800Y-111585329D03*
%TO.P,J2,13*%
%TO.N,Net-(J2-Pad13)*%
X140132800Y-106545329D03*
%TO.P,J2,14*%
%TO.N,Net-(J2-Pad14)*%
X140132800Y-111585329D03*
%TO.P,J2,15*%
%TO.N,Net-(J2-Pad15)*%
X142672800Y-106545329D03*
%TO.P,J2,16*%
%TO.N,Net-(J2-Pad16)*%
X142672800Y-111585329D03*
%TO.P,J2,17*%
%TO.N,Net-(J2-Pad17)*%
X145212800Y-106545329D03*
%TO.P,J2,18*%
%TO.N,Net-(J2-Pad18)*%
X145212800Y-111585329D03*
%TO.P,J2,19*%
%TO.N,Net-(J2-Pad19)*%
X147752800Y-106545329D03*
%TO.P,J2,20*%
%TO.N,Net-(J2-Pad20)*%
X147752800Y-111585329D03*
%TO.P,J2,21*%
%TO.N,Net-(J2-Pad21)*%
X150292800Y-106545329D03*
%TO.P,J2,22*%
%TO.N,Net-(J2-Pad22)*%
X150292800Y-111585329D03*
%TO.P,J2,23*%
%TO.N,Net-(J2-Pad23)*%
X152832800Y-106545329D03*
%TO.P,J2,24*%
%TO.N,Net-(J2-Pad24)*%
X152832800Y-111585329D03*
%TO.P,J2,25*%
%TO.N,Net-(J2-Pad25)*%
X155372800Y-106545329D03*
%TO.P,J2,26*%
%TO.N,Net-(J2-Pad26)*%
X155372800Y-111585329D03*
%TO.P,J2,27*%
%TO.N,Net-(J2-Pad27)*%
X157912800Y-106545329D03*
%TO.P,J2,28*%
%TO.N,Net-(J2-Pad28)*%
X157912800Y-111585329D03*
%TO.P,J2,29*%
%TO.N,Net-(J2-Pad29)*%
X160452800Y-106545329D03*
%TO.P,J2,30*%
%TO.N,Net-(J2-Pad30)*%
X160452800Y-111585329D03*
%TO.P,J2,31*%
%TO.N,Net-(J2-Pad31)*%
X162992800Y-106545329D03*
%TO.P,J2,32*%
%TO.N,Net-(J2-Pad32)*%
X162992800Y-111585329D03*
%TO.P,J2,33*%
%TO.N,Net-(J2-Pad33)*%
X165532800Y-106545329D03*
%TO.P,J2,34*%
%TO.N,Net-(J2-Pad34)*%
X165532800Y-111585329D03*
%TO.P,J2,35*%
%TO.N,Net-(J2-Pad35)*%
X168072800Y-106545329D03*
%TO.P,J2,36*%
%TO.N,Net-(J2-Pad36)*%
X168072800Y-111585329D03*
%TO.P,J2,37*%
%TO.N,Net-(J2-Pad37)*%
X170612800Y-106545329D03*
%TO.P,J2,38*%
%TO.N,Net-(J2-Pad38)*%
X170612800Y-111585329D03*
%TO.P,J2,39*%
%TO.N,Net-(J2-Pad39)*%
X173152800Y-106545329D03*
%TO.P,J2,40*%
%TO.N,Net-(J2-Pad40)*%
X173152800Y-111585329D03*
%TD*%
D11*
%TO.P,J1,1*%
%TO.N,Net-(J1-Pad1)*%
X124922800Y-100765329D03*
D12*
%TO.P,J1,2*%
%TO.N,Net-(J1-Pad2)*%
X124922800Y-103305329D03*
%TO.P,J1,3*%
%TO.N,Net-(J1-Pad3)*%
X127462800Y-100765329D03*
%TO.P,J1,4*%
%TO.N,Net-(J1-Pad4)*%
X127462800Y-103305329D03*
%TO.P,J1,5*%
%TO.N,/5*%
X130002800Y-100765329D03*
%TO.P,J1,6*%
%TO.N,/6*%
X130002800Y-103305329D03*
%TO.P,J1,7*%
%TO.N,Net-(J1-Pad7)*%
X132542800Y-100765329D03*
%TO.P,J1,8*%
%TO.N,Net-(J1-Pad8)*%
X132542800Y-103305329D03*
%TO.P,J1,9*%
%TO.N,Net-(J1-Pad9)*%
X135082800Y-100765329D03*
%TO.P,J1,10*%
%TO.N,Net-(J1-Pad10)*%
X135082800Y-103305329D03*
%TO.P,J1,11*%
%TO.N,Net-(J1-Pad11)*%
X137622800Y-100765329D03*
%TO.P,J1,12*%
%TO.N,Net-(J1-Pad12)*%
X137622800Y-103305329D03*
%TO.P,J1,13*%
%TO.N,Net-(J1-Pad13)*%
X140162800Y-100765329D03*
%TO.P,J1,14*%
%TO.N,Net-(J1-Pad14)*%
X140162800Y-103305329D03*
%TO.P,J1,15*%
%TO.N,Net-(J1-Pad15)*%
X142702800Y-100765329D03*
%TO.P,J1,16*%
%TO.N,Net-(J1-Pad16)*%
X142702800Y-103305329D03*
%TO.P,J1,17*%
%TO.N,Net-(J1-Pad17)*%
X145242800Y-100765329D03*
%TO.P,J1,18*%
%TO.N,Net-(J1-Pad18)*%
X145242800Y-103305329D03*
%TO.P,J1,19*%
%TO.N,Net-(J1-Pad19)*%
X147782800Y-100765329D03*
%TO.P,J1,20*%
%TO.N,Net-(J1-Pad20)*%
X147782800Y-103305329D03*
%TO.P,J1,21*%
%TO.N,Net-(J1-Pad21)*%
X150322800Y-100765329D03*
%TO.P,J1,22*%
%TO.N,Net-(J1-Pad22)*%
X150322800Y-103305329D03*
%TO.P,J1,23*%
%TO.N,Net-(J1-Pad23)*%
X152862800Y-100765329D03*
%TO.P,J1,24*%
%TO.N,Net-(J1-Pad24)*%
X152862800Y-103305329D03*
%TO.P,J1,25*%
%TO.N,Net-(J1-Pad25)*%
X155402800Y-100765329D03*
%TO.P,J1,26*%
%TO.N,Net-(J1-Pad26)*%
X155402800Y-103305329D03*
%TO.P,J1,27*%
%TO.N,Net-(J1-Pad27)*%
X157942800Y-100765329D03*
%TO.P,J1,28*%
%TO.N,Net-(J1-Pad28)*%
X157942800Y-103305329D03*
%TO.P,J1,29*%
%TO.N,Net-(J1-Pad29)*%
X160482800Y-100765329D03*
%TO.P,J1,30*%
%TO.N,Net-(J1-Pad30)*%
X160482800Y-103305329D03*
%TO.P,J1,31*%
%TO.N,Net-(J1-Pad31)*%
X163022800Y-100765329D03*
%TO.P,J1,32*%
%TO.N,Net-(J1-Pad32)*%
X163022800Y-103305329D03*
%TO.P,J1,33*%
%TO.N,Net-(J1-Pad33)*%
X165562800Y-100765329D03*
%TO.P,J1,34*%
%TO.N,Net-(J1-Pad34)*%
X165562800Y-103305329D03*
%TO.P,J1,35*%
%TO.N,Net-(J1-Pad35)*%
X168102800Y-100765329D03*
%TO.P,J1,36*%
%TO.N,Net-(J1-Pad36)*%
X168102800Y-103305329D03*
%TO.P,J1,37*%
%TO.N,Net-(J1-Pad37)*%
X170642800Y-100765329D03*
%TO.P,J1,38*%
%TO.N,Net-(J1-Pad38)*%
X170642800Y-103305329D03*
%TO.P,J1,39*%
%TO.N,Net-(J1-Pad39)*%
X173182800Y-100765329D03*
%TO.P,J1,40*%
%TO.N,Net-(J1-Pad40)*%
X173182800Y-103305329D03*
%TD*%
D13*
%TO.P,SW1,2*%
%TO.N,Net-(SW1-Pad2)*%
X117772800Y-104815329D03*
%TO.P,SW1,3*%
%TO.N,/6*%
X122272800Y-104815329D03*
%TO.P,SW1,4*%
%TO.N,Net-(SW1-Pad4)*%
X117772800Y-98315329D03*
%TO.P,SW1,1*%
%TO.N,/5*%
X122272800Y-98315329D03*
%TD*%
D14*
%TO.N,Net-(J1-Pad40)*%
X174032799Y-110705330D02*
X173152800Y-111585329D01*
X174032799Y-104155328D02*
X174032799Y-110705330D01*
X173182800Y-103305329D02*
X174032799Y-104155328D01*
%TO.N,Net-(J1-Pad39)*%
X172053399Y-105445928D02*
X173152800Y-106545329D01*
X172053399Y-101894730D02*
X172053399Y-105445928D01*
X173182800Y-100765329D02*
X172053399Y-101894730D01*
%TO.N,Net-(J1-Pad38)*%
X171492799Y-110705330D02*
X170612800Y-111585329D01*
X171492799Y-104155328D02*
X171492799Y-110705330D01*
X170642800Y-103305329D02*
X171492799Y-104155328D01*
%TO.N,Net-(J1-Pad37)*%
X169513399Y-105445928D02*
X170612800Y-106545329D01*
X169513399Y-101894730D02*
X169513399Y-105445928D01*
X170642800Y-100765329D02*
X169513399Y-101894730D01*
%TO.N,Net-(J1-Pad36)*%
X168952799Y-110705330D02*
X168072800Y-111585329D01*
X168952799Y-104155328D02*
X168952799Y-110705330D01*
X168102800Y-103305329D02*
X168952799Y-104155328D01*
%TO.N,Net-(J1-Pad35)*%
X166973399Y-105445928D02*
X168072800Y-106545329D01*
X166973399Y-101894730D02*
X166973399Y-105445928D01*
X168102800Y-100765329D02*
X166973399Y-101894730D01*
%TO.N,Net-(J1-Pad34)*%
X166412799Y-104155328D02*
X166412799Y-110705330D01*
X166412799Y-110705330D02*
X165532800Y-111585329D01*
X165562800Y-103305329D02*
X166412799Y-104155328D01*
%TO.N,Net-(J1-Pad33)*%
X164433399Y-105445928D02*
X165532800Y-106545329D01*
X164433399Y-101894730D02*
X164433399Y-105445928D01*
X165562800Y-100765329D02*
X164433399Y-101894730D01*
%TO.N,Net-(J1-Pad32)*%
X163872799Y-110705330D02*
X162992800Y-111585329D01*
X163872799Y-104155328D02*
X163872799Y-110705330D01*
X163022800Y-103305329D02*
X163872799Y-104155328D01*
%TO.N,Net-(J1-Pad31)*%
X161893399Y-105445928D02*
X162992800Y-106545329D01*
X161893399Y-101894730D02*
X161893399Y-105445928D01*
X163022800Y-100765329D02*
X161893399Y-101894730D01*
%TO.N,Net-(J1-Pad30)*%
X161332799Y-110705330D02*
X160452800Y-111585329D01*
X161332799Y-104155328D02*
X161332799Y-110705330D01*
X160482800Y-103305329D02*
X161332799Y-104155328D01*
%TO.N,Net-(J1-Pad29)*%
X159353399Y-105445928D02*
X160452800Y-106545329D01*
X159353399Y-101894730D02*
X159353399Y-105445928D01*
X160482800Y-100765329D02*
X159353399Y-101894730D01*
%TO.N,Net-(J1-Pad28)*%
X158792799Y-110705330D02*
X157912800Y-111585329D01*
X158792799Y-104155328D02*
X158792799Y-110705330D01*
X157942800Y-103305329D02*
X158792799Y-104155328D01*
%TO.N,Net-(J1-Pad27)*%
X156813399Y-101894730D02*
X156813399Y-105445928D01*
X156813399Y-105445928D02*
X157912800Y-106545329D01*
X157942800Y-100765329D02*
X156813399Y-101894730D01*
%TO.N,Net-(J1-Pad26)*%
X156252799Y-110705330D02*
X155372800Y-111585329D01*
X156252799Y-104155328D02*
X156252799Y-110705330D01*
X155402800Y-103305329D02*
X156252799Y-104155328D01*
%TO.N,Net-(J1-Pad25)*%
X154273399Y-105445928D02*
X155372800Y-106545329D01*
X154273399Y-101894730D02*
X154273399Y-105445928D01*
X155402800Y-100765329D02*
X154273399Y-101894730D01*
%TO.N,Net-(J1-Pad24)*%
X153712799Y-110705330D02*
X152832800Y-111585329D01*
X153712799Y-104155328D02*
X153712799Y-110705330D01*
X152862800Y-103305329D02*
X153712799Y-104155328D01*
%TO.N,Net-(J1-Pad23)*%
X151733399Y-105445928D02*
X152832800Y-106545329D01*
X151733399Y-101894730D02*
X151733399Y-105445928D01*
X152862800Y-100765329D02*
X151733399Y-101894730D01*
%TO.N,Net-(J1-Pad22)*%
X151172799Y-110705330D02*
X150292800Y-111585329D01*
X151172799Y-104155328D02*
X151172799Y-110705330D01*
X150322800Y-103305329D02*
X151172799Y-104155328D01*
%TO.N,Net-(J1-Pad21)*%
X149193399Y-105445928D02*
X150292800Y-106545329D01*
X149193399Y-101894730D02*
X149193399Y-105445928D01*
X150322800Y-100765329D02*
X149193399Y-101894730D01*
%TO.N,Net-(J1-Pad20)*%
X148632799Y-110705330D02*
X147752800Y-111585329D01*
X148632799Y-104155328D02*
X148632799Y-110705330D01*
X147782800Y-103305329D02*
X148632799Y-104155328D01*
%TO.N,Net-(J1-Pad19)*%
X146653399Y-105445928D02*
X147752800Y-106545329D01*
X146653399Y-101894730D02*
X146653399Y-105445928D01*
X147782800Y-100765329D02*
X146653399Y-101894730D01*
%TO.N,Net-(J1-Pad18)*%
X146092799Y-110705330D02*
X145212800Y-111585329D01*
X146092799Y-104155328D02*
X146092799Y-110705330D01*
X145242800Y-103305329D02*
X146092799Y-104155328D01*
%TO.N,Net-(J1-Pad17)*%
X144113399Y-105445928D02*
X145212800Y-106545329D01*
X144113399Y-101894730D02*
X144113399Y-105445928D01*
X145242800Y-100765329D02*
X144113399Y-101894730D01*
%TO.N,Net-(J1-Pad16)*%
X143552799Y-110705330D02*
X142672800Y-111585329D01*
X143552799Y-104155328D02*
X143552799Y-110705330D01*
X142702800Y-103305329D02*
X143552799Y-104155328D01*
%TO.N,Net-(J1-Pad15)*%
X141573399Y-105445928D02*
X142672800Y-106545329D01*
X142702800Y-100765329D02*
X141573399Y-101894730D01*
X141573399Y-101894730D02*
X141573399Y-105445928D01*
%TO.N,Net-(J1-Pad14)*%
X141012799Y-110705330D02*
X140132800Y-111585329D01*
X141012799Y-104155328D02*
X141012799Y-110705330D01*
X140162800Y-103305329D02*
X141012799Y-104155328D01*
%TO.N,Net-(J1-Pad13)*%
X139033399Y-105445928D02*
X140132800Y-106545329D01*
X140162800Y-100765329D02*
X139033399Y-101894730D01*
X139033399Y-101894730D02*
X139033399Y-105445928D01*
%TO.N,Net-(J1-Pad12)*%
X138472799Y-110705330D02*
X137592800Y-111585329D01*
X138472799Y-104155328D02*
X138472799Y-110705330D01*
X137622800Y-103305329D02*
X138472799Y-104155328D01*
%TO.N,Net-(J1-Pad11)*%
X136493399Y-105445928D02*
X137592800Y-106545329D01*
X136493399Y-101894730D02*
X136493399Y-105445928D01*
X137622800Y-100765329D02*
X136493399Y-101894730D01*
%TO.N,Net-(J1-Pad10)*%
X135932799Y-110705330D02*
X135052800Y-111585329D01*
X135932799Y-104155328D02*
X135932799Y-110705330D01*
X135082800Y-103305329D02*
X135932799Y-104155328D01*
%TO.N,Net-(J1-Pad9)*%
X133953399Y-105445928D02*
X135052800Y-106545329D01*
X133953399Y-101894730D02*
X133953399Y-105445928D01*
X135082800Y-100765329D02*
X133953399Y-101894730D01*
%TO.N,Net-(J1-Pad8)*%
X133392799Y-110705330D02*
X132512800Y-111585329D01*
X133392799Y-104155328D02*
X133392799Y-110705330D01*
X132542800Y-103305329D02*
X133392799Y-104155328D01*
%TO.N,Net-(J1-Pad7)*%
X131413399Y-105445928D02*
X132512800Y-106545329D01*
X131413399Y-101894730D02*
X131413399Y-105445928D01*
X132542800Y-100765329D02*
X131413399Y-101894730D01*
%TO.N,/6*%
X130852799Y-110705330D02*
X129972800Y-111585329D01*
X130852799Y-104155328D02*
X130852799Y-110705330D01*
X130002800Y-103305329D02*
X130852799Y-104155328D01*
%TO.N,/5*%
X128873399Y-105445928D02*
X129972800Y-106545329D01*
X128873399Y-101894730D02*
X128873399Y-105445928D01*
X130002800Y-100765329D02*
X128873399Y-101894730D01*
%TO.N,Net-(J1-Pad4)*%
X128312799Y-110705330D02*
X127432800Y-111585329D01*
X128312799Y-104155328D02*
X128312799Y-110705330D01*
X127462800Y-103305329D02*
X128312799Y-104155328D01*
%TO.N,Net-(J1-Pad3)*%
X126333399Y-105445928D02*
X127432800Y-106545329D01*
X126333399Y-101894730D02*
X126333399Y-105445928D01*
X127462800Y-100765329D02*
X126333399Y-101894730D01*
%TO.N,Net-(J1-Pad2)*%
X125772799Y-110705330D02*
X124892800Y-111585329D01*
X125772799Y-104155328D02*
X125772799Y-110705330D01*
X124922800Y-103305329D02*
X125772799Y-104155328D01*
%TO.N,Net-(J1-Pad1)*%
X123793399Y-105445928D02*
X124892800Y-106545329D01*
X123793399Y-101894730D02*
X123793399Y-105445928D01*
X124922800Y-100765329D02*
X123793399Y-101894730D01*
%TD*%
M02*
