%TF.GenerationSoftware,KiCad,Pcbnew,5.1.9*%
%TF.CreationDate,2021-02-16T04:37:06+02:00*%
%TF.ProjectId,PiCase40,50694361-7365-4343-902e-6b696361645f,rev?*%
%TF.SameCoordinates,Original*%
%TF.FileFunction,Copper,L2,Bot*%
%TF.FilePolarity,Positive*%
%FSLAX46Y46*%
G04 Gerber Fmt 4.6, Leading zero omitted, Abs format (unit mm)*
G04 Created by KiCad (PCBNEW 5.1.9) date 2021-02-16 04:37:06*
%MOMM*%
%LPD*%
G01*
G04 APERTURE LIST*
%TA.AperFunction,ComponentPad*%
%ADD10R,1.700000X1.700000*%
%TD*%
%TA.AperFunction,ComponentPad*%
%ADD11O,1.700000X1.700000*%
%TD*%
%TA.AperFunction,ComponentPad*%
%ADD12C,2.000000*%
%TD*%
%TA.AperFunction,Conductor*%
%ADD13C,0.304800*%
%TD*%
G04 APERTURE END LIST*
D10*
%TO.P,J1,1*%
%TO.N,Net-(J1-Pad1)*%
X124922800Y-100765329D03*
D11*
%TO.P,J1,2*%
%TO.N,Net-(J1-Pad2)*%
X124922800Y-103305329D03*
%TO.P,J1,3*%
%TO.N,Net-(J1-Pad3)*%
X127462800Y-100765329D03*
%TO.P,J1,4*%
%TO.N,Net-(J1-Pad4)*%
X127462800Y-103305329D03*
%TO.P,J1,5*%
%TO.N,/5*%
X130002800Y-100765329D03*
%TO.P,J1,6*%
%TO.N,/6*%
X130002800Y-103305329D03*
%TO.P,J1,7*%
%TO.N,Net-(J1-Pad7)*%
X132542800Y-100765329D03*
%TO.P,J1,8*%
%TO.N,Net-(J1-Pad8)*%
X132542800Y-103305329D03*
%TO.P,J1,9*%
%TO.N,Net-(J1-Pad9)*%
X135082800Y-100765329D03*
%TO.P,J1,10*%
%TO.N,Net-(J1-Pad10)*%
X135082800Y-103305329D03*
%TO.P,J1,11*%
%TO.N,Net-(J1-Pad11)*%
X137622800Y-100765329D03*
%TO.P,J1,12*%
%TO.N,Net-(J1-Pad12)*%
X137622800Y-103305329D03*
%TO.P,J1,13*%
%TO.N,Net-(J1-Pad13)*%
X140162800Y-100765329D03*
%TO.P,J1,14*%
%TO.N,Net-(J1-Pad14)*%
X140162800Y-103305329D03*
%TO.P,J1,15*%
%TO.N,Net-(J1-Pad15)*%
X142702800Y-100765329D03*
%TO.P,J1,16*%
%TO.N,Net-(J1-Pad16)*%
X142702800Y-103305329D03*
%TO.P,J1,17*%
%TO.N,Net-(J1-Pad17)*%
X145242800Y-100765329D03*
%TO.P,J1,18*%
%TO.N,Net-(J1-Pad18)*%
X145242800Y-103305329D03*
%TO.P,J1,19*%
%TO.N,Net-(J1-Pad19)*%
X147782800Y-100765329D03*
%TO.P,J1,20*%
%TO.N,Net-(J1-Pad20)*%
X147782800Y-103305329D03*
%TO.P,J1,21*%
%TO.N,Net-(J1-Pad21)*%
X150322800Y-100765329D03*
%TO.P,J1,22*%
%TO.N,Net-(J1-Pad22)*%
X150322800Y-103305329D03*
%TO.P,J1,23*%
%TO.N,Net-(J1-Pad23)*%
X152862800Y-100765329D03*
%TO.P,J1,24*%
%TO.N,Net-(J1-Pad24)*%
X152862800Y-103305329D03*
%TO.P,J1,25*%
%TO.N,Net-(J1-Pad25)*%
X155402800Y-100765329D03*
%TO.P,J1,26*%
%TO.N,Net-(J1-Pad26)*%
X155402800Y-103305329D03*
%TO.P,J1,27*%
%TO.N,Net-(J1-Pad27)*%
X157942800Y-100765329D03*
%TO.P,J1,28*%
%TO.N,Net-(J1-Pad28)*%
X157942800Y-103305329D03*
%TO.P,J1,29*%
%TO.N,Net-(J1-Pad29)*%
X160482800Y-100765329D03*
%TO.P,J1,30*%
%TO.N,Net-(J1-Pad30)*%
X160482800Y-103305329D03*
%TO.P,J1,31*%
%TO.N,Net-(J1-Pad31)*%
X163022800Y-100765329D03*
%TO.P,J1,32*%
%TO.N,Net-(J1-Pad32)*%
X163022800Y-103305329D03*
%TO.P,J1,33*%
%TO.N,Net-(J1-Pad33)*%
X165562800Y-100765329D03*
%TO.P,J1,34*%
%TO.N,Net-(J1-Pad34)*%
X165562800Y-103305329D03*
%TO.P,J1,35*%
%TO.N,Net-(J1-Pad35)*%
X168102800Y-100765329D03*
%TO.P,J1,36*%
%TO.N,Net-(J1-Pad36)*%
X168102800Y-103305329D03*
%TO.P,J1,37*%
%TO.N,Net-(J1-Pad37)*%
X170642800Y-100765329D03*
%TO.P,J1,38*%
%TO.N,Net-(J1-Pad38)*%
X170642800Y-103305329D03*
%TO.P,J1,39*%
%TO.N,Net-(J1-Pad39)*%
X173182800Y-100765329D03*
%TO.P,J1,40*%
%TO.N,Net-(J1-Pad40)*%
X173182800Y-103305329D03*
%TD*%
D12*
%TO.P,SW1,2*%
%TO.N,Net-(SW1-Pad2)*%
X117772800Y-104815329D03*
%TO.P,SW1,3*%
%TO.N,/6*%
X122272800Y-104815329D03*
%TO.P,SW1,4*%
%TO.N,Net-(SW1-Pad4)*%
X117772800Y-98315329D03*
%TO.P,SW1,1*%
%TO.N,/5*%
X122272800Y-98315329D03*
%TD*%
D13*
%TO.N,/6*%
X128492800Y-104815329D02*
X122272800Y-104815329D01*
X130002800Y-103305329D02*
X128492800Y-104815329D01*
%TO.N,/5*%
X122272800Y-98315329D02*
X122272800Y-98524329D01*
X128552799Y-99315328D02*
X130002800Y-100765329D01*
X123272799Y-99315328D02*
X128552799Y-99315328D01*
X122272800Y-98315329D02*
X123272799Y-99315328D01*
%TD*%
M02*
