%TF.GenerationSoftware,KiCad,Pcbnew,5.1.9*%
%TF.CreationDate,2021-02-16T04:37:06+02:00*%
%TF.ProjectId,PiCase40,50694361-7365-4343-902e-6b696361645f,rev?*%
%TF.SameCoordinates,Original*%
%TF.FileFunction,Soldermask,Bot*%
%TF.FilePolarity,Negative*%
%FSLAX46Y46*%
G04 Gerber Fmt 4.6, Leading zero omitted, Abs format (unit mm)*
G04 Created by KiCad (PCBNEW 5.1.9) date 2021-02-16 04:37:06*
%MOMM*%
%LPD*%
G01*
G04 APERTURE LIST*
%ADD10R,1.700000X1.700000*%
%ADD11O,1.700000X1.700000*%
%ADD12C,2.000000*%
G04 APERTURE END LIST*
D10*
%TO.C,J1*%
X124922800Y-100765329D03*
D11*
X124922800Y-103305329D03*
X127462800Y-100765329D03*
X127462800Y-103305329D03*
X130002800Y-100765329D03*
X130002800Y-103305329D03*
X132542800Y-100765329D03*
X132542800Y-103305329D03*
X135082800Y-100765329D03*
X135082800Y-103305329D03*
X137622800Y-100765329D03*
X137622800Y-103305329D03*
X140162800Y-100765329D03*
X140162800Y-103305329D03*
X142702800Y-100765329D03*
X142702800Y-103305329D03*
X145242800Y-100765329D03*
X145242800Y-103305329D03*
X147782800Y-100765329D03*
X147782800Y-103305329D03*
X150322800Y-100765329D03*
X150322800Y-103305329D03*
X152862800Y-100765329D03*
X152862800Y-103305329D03*
X155402800Y-100765329D03*
X155402800Y-103305329D03*
X157942800Y-100765329D03*
X157942800Y-103305329D03*
X160482800Y-100765329D03*
X160482800Y-103305329D03*
X163022800Y-100765329D03*
X163022800Y-103305329D03*
X165562800Y-100765329D03*
X165562800Y-103305329D03*
X168102800Y-100765329D03*
X168102800Y-103305329D03*
X170642800Y-100765329D03*
X170642800Y-103305329D03*
X173182800Y-100765329D03*
X173182800Y-103305329D03*
%TD*%
D12*
%TO.C,SW1*%
X117772800Y-104815329D03*
X122272800Y-104815329D03*
X117772800Y-98315329D03*
X122272800Y-98315329D03*
%TD*%
M02*
